<?xml version="1.0" encoding="utf-8" standalone="no"?>
<!DOCTYPE svg PUBLIC "-//W3C//DTD SVG 1.1//EN"
  "http://www.w3.org/Graphics/SVG/1.1/DTD/svg11.dtd">
<!-- Created with matplotlib (http://matplotlib.org/) -->
<svg height="720pt" version="1.1" viewBox="0 0 1800 720" width="1800pt" xmlns="http://www.w3.org/2000/svg" xmlns:xlink="http://www.w3.org/1999/xlink">
 <defs>
  <style type="text/css">
*{stroke-linecap:butt;stroke-linejoin:round;}
  </style>
 </defs>
 <g id="figure_1">
  <g id="patch_1">
   <path d="M 0 720 
L 1800 720 
L 1800 0 
L 0 0 
z
" style="fill:#ffffff;"/>
  </g>
  <g id="axes_1">
   <g id="patch_2">
    <path d="M 13.32 668.792 
L 1786.68 668.792 
L 1786.68 26.88 
L 13.32 26.88 
z
" style="fill:#ffffff;"/>
   </g>
   <g id="patch_3">
    <path clip-path="url(#p8fcd5c8ab7)" d="M 93.927273 347.836 
L 147.665455 347.836 
L 147.665455 364.639024 
L 93.927273 364.639024 
z
" style="fill:#a50026;"/>
   </g>
   <g id="patch_4">
    <path clip-path="url(#p8fcd5c8ab7)" d="M 147.665455 347.836 
L 201.403636 347.836 
L 201.403636 359.450671 
L 147.665455 359.450671 
z
" style="fill:#b50f26;"/>
   </g>
   <g id="patch_5">
    <path clip-path="url(#p8fcd5c8ab7)" d="M 201.403636 347.836 
L 255.141818 347.836 
L 255.141818 488.108478 
L 201.403636 488.108478 
z
" style="fill:#c62027;"/>
   </g>
   <g id="patch_6">
    <path clip-path="url(#p8fcd5c8ab7)" d="M 255.141818 347.836 
L 308.88 347.836 
L 308.88 212.763186 
L 255.141818 212.763186 
z
" style="fill:#d83128;"/>
   </g>
   <g id="patch_7">
    <path clip-path="url(#p8fcd5c8ab7)" d="M 308.88 347.836 
L 362.618182 347.836 
L 362.618182 186.193481 
L 308.88 186.193481 
z
" style="fill:#e24731;"/>
   </g>
   <g id="patch_8">
    <path clip-path="url(#p8fcd5c8ab7)" d="M 362.618182 347.836 
L 416.356364 347.836 
L 416.356364 304.88737 
L 362.618182 304.88737 
z
" style="fill:#ec5c3b;"/>
   </g>
   <g id="patch_9">
    <path clip-path="url(#p8fcd5c8ab7)" d="M 416.356364 347.836 
L 470.094545 347.836 
L 470.094545 338.641311 
L 416.356364 338.641311 
z
" style="fill:#f47044;"/>
   </g>
   <g id="patch_10">
    <path clip-path="url(#p8fcd5c8ab7)" d="M 470.094545 347.836 
L 523.832727 347.836 
L 523.832727 423.043415 
L 470.094545 423.043415 
z
" style="fill:#f8864f;"/>
   </g>
   <g id="patch_11">
    <path clip-path="url(#p8fcd5c8ab7)" d="M 523.832727 347.836 
L 577.570909 347.836 
L 577.570909 268.375895 
L 523.832727 268.375895 
z
" style="fill:#fb9d59;"/>
   </g>
   <g id="patch_12">
    <path clip-path="url(#p8fcd5c8ab7)" d="M 577.570909 347.836 
L 631.309091 347.836 
L 631.309091 328.753317 
L 577.570909 328.753317 
z
" style="fill:#fdb366;"/>
   </g>
   <g id="patch_13">
    <path clip-path="url(#p8fcd5c8ab7)" d="M 631.309091 347.836 
L 685.047273 347.836 
L 685.047273 254.152323 
L 631.309091 254.152323 
z
" style="fill:#fdc576;"/>
   </g>
   <g id="patch_14">
    <path clip-path="url(#p8fcd5c8ab7)" d="M 685.047273 347.836 
L 738.785455 347.836 
L 738.785455 347.49922 
L 685.047273 347.49922 
z
" style="fill:#fed687;"/>
   </g>
   <g id="patch_15">
    <path clip-path="url(#p8fcd5c8ab7)" d="M 738.785455 347.836 
L 792.523636 347.836 
L 792.523636 382.114237 
L 738.785455 382.114237 
z
" style="fill:#fee496;"/>
   </g>
   <g id="patch_16">
    <path clip-path="url(#p8fcd5c8ab7)" d="M 792.523636 347.836 
L 846.261818 347.836 
L 846.261818 447.053759 
L 792.523636 447.053759 
z
" style="fill:#feefa6;"/>
   </g>
   <g id="patch_17">
    <path clip-path="url(#p8fcd5c8ab7)" d="M 846.261818 347.836 
L 900 347.836 
L 900 417.095848 
L 846.261818 417.095848 
z
" style="fill:#fffab7;"/>
   </g>
   <g id="patch_18">
    <path clip-path="url(#p8fcd5c8ab7)" d="M 900 347.836 
L 953.738182 347.836 
L 953.738182 363.468355 
L 900 363.468355 
z
" style="fill:#fafdc9;"/>
   </g>
   <g id="patch_19">
    <path clip-path="url(#p8fcd5c8ab7)" d="M 953.738182 347.836 
L 1007.476364 347.836 
L 1007.476364 134.579516 
L 953.738182 134.579516 
z
" style="fill:#eff9dd;"/>
   </g>
   <g id="patch_20">
    <path clip-path="url(#p8fcd5c8ab7)" d="M 1007.476364 347.836 
L 1061.214545 347.836 
L 1061.214545 138.92523 
L 1007.476364 138.92523 
z
" style="fill:#e4f4f1;"/>
   </g>
   <g id="patch_21">
    <path clip-path="url(#p8fcd5c8ab7)" d="M 1061.214545 347.836 
L 1114.952727 347.836 
L 1114.952727 133.085456 
L 1061.214545 133.085456 
z
" style="fill:#d6eef5;"/>
   </g>
   <g id="patch_22">
    <path clip-path="url(#p8fcd5c8ab7)" d="M 1114.952727 347.836 
L 1168.690909 347.836 
L 1168.690909 129.504699 
L 1114.952727 129.504699 
z
" style="fill:#c3e5f0;"/>
   </g>
   <g id="patch_23">
    <path clip-path="url(#p8fcd5c8ab7)" d="M 1168.690909 347.836 
L 1222.429091 347.836 
L 1222.429091 177.161542 
L 1168.690909 177.161542 
z
" style="fill:#b0dcea;"/>
   </g>
   <g id="patch_24">
    <path clip-path="url(#p8fcd5c8ab7)" d="M 1222.429091 347.836 
L 1276.167273 347.836 
L 1276.167273 177.529196 
L 1222.429091 177.529196 
z
" style="fill:#9dcee3;"/>
   </g>
   <g id="patch_25">
    <path clip-path="url(#p8fcd5c8ab7)" d="M 1276.167273 347.836 
L 1329.905455 347.836 
L 1329.905455 213.183457 
L 1276.167273 213.183457 
z
" style="fill:#8abeda;"/>
   </g>
   <g id="patch_26">
    <path clip-path="url(#p8fcd5c8ab7)" d="M 1329.905455 347.836 
L 1383.643636 347.836 
L 1383.643636 132.006053 
L 1329.905455 132.006053 
z
" style="fill:#76afd2;"/>
   </g>
   <g id="patch_27">
    <path clip-path="url(#p8fcd5c8ab7)" d="M 1383.643636 347.836 
L 1437.381818 347.836 
L 1437.381818 381.127333 
L 1383.643636 381.127333 
z
" style="fill:#679ec9;"/>
   </g>
   <g id="patch_28">
    <path clip-path="url(#p8fcd5c8ab7)" d="M 1437.381818 347.836 
L 1491.12 347.836 
L 1491.12 423.043415 
L 1437.381818 423.043415 
z
" style="fill:#578abf;"/>
   </g>
   <g id="patch_29">
    <path clip-path="url(#p8fcd5c8ab7)" d="M 1491.12 347.836 
L 1544.858182 347.836 
L 1544.858182 414.505466 
L 1491.12 414.505466 
z
" style="fill:#4676b5;"/>
   </g>
   <g id="patch_30">
    <path clip-path="url(#p8fcd5c8ab7)" d="M 1544.858182 347.836 
L 1598.596364 347.836 
L 1598.596364 236.261164 
L 1544.858182 236.261164 
z
" style="fill:#3e60aa;"/>
   </g>
   <g id="patch_31">
    <path clip-path="url(#p8fcd5c8ab7)" d="M 1598.596364 347.836 
L 1652.334545 347.836 
L 1652.334545 288.995381 
L 1598.596364 288.995381 
z
" style="fill:#374a9f;"/>
   </g>
   <g id="patch_32">
    <path clip-path="url(#p8fcd5c8ab7)" d="M 1652.334545 347.836 
L 1706.072727 347.836 
L 1706.072727 127.489369 
L 1652.334545 127.489369 
z
" style="fill:#313695;"/>
   </g>
   <g id="matplotlib.axis_1">
    <g id="xtick_1">
     <g id="line2d_1">
      <defs>
       <path d="M 0 0 
L 0 3.5 
" id="m3d93f657e3" style="stroke:#000000;stroke-width:0.8;"/>
      </defs>
      <g>
       <use style="stroke:#000000;stroke-width:0.8;" x="120.796364" xlink:href="#m3d93f657e3" y="668.792"/>
      </g>
     </g>
     <g id="text_1">
      <!-- aerials -->
      <defs>
       <path d="M 34.28125 27.484375 
Q 23.390625 27.484375 19.1875 25 
Q 14.984375 22.515625 14.984375 16.5 
Q 14.984375 11.71875 18.140625 8.90625 
Q 21.296875 6.109375 26.703125 6.109375 
Q 34.1875 6.109375 38.703125 11.40625 
Q 43.21875 16.703125 43.21875 25.484375 
L 43.21875 27.484375 
z
M 52.203125 31.203125 
L 52.203125 0 
L 43.21875 0 
L 43.21875 8.296875 
Q 40.140625 3.328125 35.546875 0.953125 
Q 30.953125 -1.421875 24.3125 -1.421875 
Q 15.921875 -1.421875 10.953125 3.296875 
Q 6 8.015625 6 15.921875 
Q 6 25.140625 12.171875 29.828125 
Q 18.359375 34.515625 30.609375 34.515625 
L 43.21875 34.515625 
L 43.21875 35.40625 
Q 43.21875 41.609375 39.140625 45 
Q 35.0625 48.390625 27.6875 48.390625 
Q 23 48.390625 18.546875 47.265625 
Q 14.109375 46.140625 10.015625 43.890625 
L 10.015625 52.203125 
Q 14.9375 54.109375 19.578125 55.046875 
Q 24.21875 56 28.609375 56 
Q 40.484375 56 46.34375 49.84375 
Q 52.203125 43.703125 52.203125 31.203125 
z
" id="DejaVuSans-61"/>
       <path d="M 56.203125 29.59375 
L 56.203125 25.203125 
L 14.890625 25.203125 
Q 15.484375 15.921875 20.484375 11.0625 
Q 25.484375 6.203125 34.421875 6.203125 
Q 39.59375 6.203125 44.453125 7.46875 
Q 49.3125 8.734375 54.109375 11.28125 
L 54.109375 2.78125 
Q 49.265625 0.734375 44.1875 -0.34375 
Q 39.109375 -1.421875 33.890625 -1.421875 
Q 20.796875 -1.421875 13.15625 6.1875 
Q 5.515625 13.8125 5.515625 26.8125 
Q 5.515625 40.234375 12.765625 48.109375 
Q 20.015625 56 32.328125 56 
Q 43.359375 56 49.78125 48.890625 
Q 56.203125 41.796875 56.203125 29.59375 
z
M 47.21875 32.234375 
Q 47.125 39.59375 43.09375 43.984375 
Q 39.0625 48.390625 32.421875 48.390625 
Q 24.90625 48.390625 20.390625 44.140625 
Q 15.875 39.890625 15.1875 32.171875 
z
" id="DejaVuSans-65"/>
       <path d="M 41.109375 46.296875 
Q 39.59375 47.171875 37.8125 47.578125 
Q 36.03125 48 33.890625 48 
Q 26.265625 48 22.1875 43.046875 
Q 18.109375 38.09375 18.109375 28.8125 
L 18.109375 0 
L 9.078125 0 
L 9.078125 54.6875 
L 18.109375 54.6875 
L 18.109375 46.1875 
Q 20.953125 51.171875 25.484375 53.578125 
Q 30.03125 56 36.53125 56 
Q 37.453125 56 38.578125 55.875 
Q 39.703125 55.765625 41.0625 55.515625 
z
" id="DejaVuSans-72"/>
       <path d="M 9.421875 54.6875 
L 18.40625 54.6875 
L 18.40625 0 
L 9.421875 0 
z
M 9.421875 75.984375 
L 18.40625 75.984375 
L 18.40625 64.59375 
L 9.421875 64.59375 
z
" id="DejaVuSans-69"/>
       <path d="M 9.421875 75.984375 
L 18.40625 75.984375 
L 18.40625 0 
L 9.421875 0 
z
" id="DejaVuSans-6c"/>
       <path d="M 44.28125 53.078125 
L 44.28125 44.578125 
Q 40.484375 46.53125 36.375 47.5 
Q 32.28125 48.484375 27.875 48.484375 
Q 21.1875 48.484375 17.84375 46.4375 
Q 14.5 44.390625 14.5 40.28125 
Q 14.5 37.15625 16.890625 35.375 
Q 19.28125 33.59375 26.515625 31.984375 
L 29.59375 31.296875 
Q 39.15625 29.25 43.1875 25.515625 
Q 47.21875 21.78125 47.21875 15.09375 
Q 47.21875 7.46875 41.1875 3.015625 
Q 35.15625 -1.421875 24.609375 -1.421875 
Q 20.21875 -1.421875 15.453125 -0.5625 
Q 10.6875 0.296875 5.421875 2 
L 5.421875 11.28125 
Q 10.40625 8.6875 15.234375 7.390625 
Q 20.0625 6.109375 24.8125 6.109375 
Q 31.15625 6.109375 34.5625 8.28125 
Q 37.984375 10.453125 37.984375 14.40625 
Q 37.984375 18.0625 35.515625 20.015625 
Q 33.0625 21.96875 24.703125 23.78125 
L 21.578125 24.515625 
Q 13.234375 26.265625 9.515625 29.90625 
Q 5.8125 33.546875 5.8125 39.890625 
Q 5.8125 47.609375 11.28125 51.796875 
Q 16.75 56 26.8125 56 
Q 31.78125 56 36.171875 55.265625 
Q 40.578125 54.546875 44.28125 53.078125 
z
" id="DejaVuSans-73"/>
      </defs>
      <g transform="translate(104.153395 683.390437)scale(0.1 -0.1)">
       <use xlink:href="#DejaVuSans-61"/>
       <use x="61.279297" xlink:href="#DejaVuSans-65"/>
       <use x="122.802734" xlink:href="#DejaVuSans-72"/>
       <use x="163.916016" xlink:href="#DejaVuSans-69"/>
       <use x="191.699219" xlink:href="#DejaVuSans-61"/>
       <use x="252.978516" xlink:href="#DejaVuSans-6c"/>
       <use x="280.761719" xlink:href="#DejaVuSans-73"/>
      </g>
      <!-- Total -->
      <defs>
       <path d="M -0.296875 72.90625 
L 61.375 72.90625 
L 61.375 64.59375 
L 35.5 64.59375 
L 35.5 0 
L 25.59375 0 
L 25.59375 64.59375 
L -0.296875 64.59375 
z
" id="DejaVuSans-54"/>
       <path d="M 30.609375 48.390625 
Q 23.390625 48.390625 19.1875 42.75 
Q 14.984375 37.109375 14.984375 27.296875 
Q 14.984375 17.484375 19.15625 11.84375 
Q 23.34375 6.203125 30.609375 6.203125 
Q 37.796875 6.203125 41.984375 11.859375 
Q 46.1875 17.53125 46.1875 27.296875 
Q 46.1875 37.015625 41.984375 42.703125 
Q 37.796875 48.390625 30.609375 48.390625 
z
M 30.609375 56 
Q 42.328125 56 49.015625 48.375 
Q 55.71875 40.765625 55.71875 27.296875 
Q 55.71875 13.875 49.015625 6.21875 
Q 42.328125 -1.421875 30.609375 -1.421875 
Q 18.84375 -1.421875 12.171875 6.21875 
Q 5.515625 13.875 5.515625 27.296875 
Q 5.515625 40.765625 12.171875 48.375 
Q 18.84375 56 30.609375 56 
z
" id="DejaVuSans-6f"/>
       <path d="M 18.3125 70.21875 
L 18.3125 54.6875 
L 36.8125 54.6875 
L 36.8125 47.703125 
L 18.3125 47.703125 
L 18.3125 18.015625 
Q 18.3125 11.328125 20.140625 9.421875 
Q 21.96875 7.515625 27.59375 7.515625 
L 36.8125 7.515625 
L 36.8125 0 
L 27.59375 0 
Q 17.1875 0 13.234375 3.875 
Q 9.28125 7.765625 9.28125 18.015625 
L 9.28125 47.703125 
L 2.6875 47.703125 
L 2.6875 54.6875 
L 9.28125 54.6875 
L 9.28125 70.21875 
z
" id="DejaVuSans-74"/>
      </defs>
      <g transform="translate(108.283082 694.58825)scale(0.1 -0.1)">
       <use xlink:href="#DejaVuSans-54"/>
       <use x="60.818359" xlink:href="#DejaVuSans-6f"/>
       <use x="122" xlink:href="#DejaVuSans-74"/>
       <use x="161.208984" xlink:href="#DejaVuSans-61"/>
       <use x="222.488281" xlink:href="#DejaVuSans-6c"/>
      </g>
     </g>
    </g>
    <g id="xtick_2">
     <g id="line2d_2">
      <g>
       <use style="stroke:#000000;stroke-width:0.8;" x="174.534545" xlink:href="#m3d93f657e3" y="668.792"/>
      </g>
     </g>
     <g id="text_2">
      <!-- aerials -->
      <g transform="translate(157.891577 683.390437)scale(0.1 -0.1)">
       <use xlink:href="#DejaVuSans-61"/>
       <use x="61.279297" xlink:href="#DejaVuSans-65"/>
       <use x="122.802734" xlink:href="#DejaVuSans-72"/>
       <use x="163.916016" xlink:href="#DejaVuSans-69"/>
       <use x="191.699219" xlink:href="#DejaVuSans-61"/>
       <use x="252.978516" xlink:href="#DejaVuSans-6c"/>
       <use x="280.761719" xlink:href="#DejaVuSans-73"/>
      </g>
      <!-- Won -->
      <defs>
       <path d="M 3.328125 72.90625 
L 13.28125 72.90625 
L 28.609375 11.28125 
L 43.890625 72.90625 
L 54.984375 72.90625 
L 70.3125 11.28125 
L 85.59375 72.90625 
L 95.609375 72.90625 
L 77.296875 0 
L 64.890625 0 
L 49.515625 63.28125 
L 33.984375 0 
L 21.578125 0 
z
" id="DejaVuSans-57"/>
       <path d="M 54.890625 33.015625 
L 54.890625 0 
L 45.90625 0 
L 45.90625 32.71875 
Q 45.90625 40.484375 42.875 44.328125 
Q 39.84375 48.1875 33.796875 48.1875 
Q 26.515625 48.1875 22.3125 43.546875 
Q 18.109375 38.921875 18.109375 30.90625 
L 18.109375 0 
L 9.078125 0 
L 9.078125 54.6875 
L 18.109375 54.6875 
L 18.109375 46.1875 
Q 21.34375 51.125 25.703125 53.5625 
Q 30.078125 56 35.796875 56 
Q 45.21875 56 50.046875 50.171875 
Q 54.890625 44.34375 54.890625 33.015625 
z
" id="DejaVuSans-6e"/>
      </defs>
      <g transform="translate(163.366577 694.58825)scale(0.1 -0.1)">
       <use xlink:href="#DejaVuSans-57"/>
       <use x="98.798828" xlink:href="#DejaVuSans-6f"/>
       <use x="159.980469" xlink:href="#DejaVuSans-6e"/>
      </g>
     </g>
    </g>
    <g id="xtick_3">
     <g id="line2d_3">
      <g>
       <use style="stroke:#000000;stroke-width:0.8;" x="228.272727" xlink:href="#m3d93f657e3" y="668.792"/>
      </g>
     </g>
     <g id="text_3">
      <!-- clearances -->
      <defs>
       <path d="M 48.78125 52.59375 
L 48.78125 44.1875 
Q 44.96875 46.296875 41.140625 47.34375 
Q 37.3125 48.390625 33.40625 48.390625 
Q 24.65625 48.390625 19.8125 42.84375 
Q 14.984375 37.3125 14.984375 27.296875 
Q 14.984375 17.28125 19.8125 11.734375 
Q 24.65625 6.203125 33.40625 6.203125 
Q 37.3125 6.203125 41.140625 7.25 
Q 44.96875 8.296875 48.78125 10.40625 
L 48.78125 2.09375 
Q 45.015625 0.34375 40.984375 -0.53125 
Q 36.96875 -1.421875 32.421875 -1.421875 
Q 20.0625 -1.421875 12.78125 6.34375 
Q 5.515625 14.109375 5.515625 27.296875 
Q 5.515625 40.671875 12.859375 48.328125 
Q 20.21875 56 33.015625 56 
Q 37.15625 56 41.109375 55.140625 
Q 45.0625 54.296875 48.78125 52.59375 
z
" id="DejaVuSans-63"/>
      </defs>
      <g transform="translate(201.275071 683.390437)scale(0.1 -0.1)">
       <use xlink:href="#DejaVuSans-63"/>
       <use x="54.980469" xlink:href="#DejaVuSans-6c"/>
       <use x="82.763672" xlink:href="#DejaVuSans-65"/>
       <use x="144.287109" xlink:href="#DejaVuSans-61"/>
       <use x="205.566406" xlink:href="#DejaVuSans-72"/>
       <use x="246.679688" xlink:href="#DejaVuSans-61"/>
       <use x="307.958984" xlink:href="#DejaVuSans-6e"/>
       <use x="371.337891" xlink:href="#DejaVuSans-63"/>
       <use x="426.318359" xlink:href="#DejaVuSans-65"/>
       <use x="487.841797" xlink:href="#DejaVuSans-73"/>
      </g>
     </g>
    </g>
    <g id="xtick_4">
     <g id="line2d_4">
      <g>
       <use style="stroke:#000000;stroke-width:0.8;" x="282.010909" xlink:href="#m3d93f657e3" y="668.792"/>
      </g>
     </g>
     <g id="text_4">
      <!-- corners -->
      <g transform="translate(263.242159 683.390437)scale(0.1 -0.1)">
       <use xlink:href="#DejaVuSans-63"/>
       <use x="54.980469" xlink:href="#DejaVuSans-6f"/>
       <use x="116.162109" xlink:href="#DejaVuSans-72"/>
       <use x="157.259766" xlink:href="#DejaVuSans-6e"/>
       <use x="220.638672" xlink:href="#DejaVuSans-65"/>
       <use x="282.162109" xlink:href="#DejaVuSans-72"/>
       <use x="323.275391" xlink:href="#DejaVuSans-73"/>
      </g>
      <!-- Accurate -->
      <defs>
       <path d="M 34.1875 63.1875 
L 20.796875 26.90625 
L 47.609375 26.90625 
z
M 28.609375 72.90625 
L 39.796875 72.90625 
L 67.578125 0 
L 57.328125 0 
L 50.6875 18.703125 
L 17.828125 18.703125 
L 11.1875 0 
L 0.78125 0 
z
" id="DejaVuSans-41"/>
       <path d="M 8.5 21.578125 
L 8.5 54.6875 
L 17.484375 54.6875 
L 17.484375 21.921875 
Q 17.484375 14.15625 20.5 10.265625 
Q 23.53125 6.390625 29.59375 6.390625 
Q 36.859375 6.390625 41.078125 11.03125 
Q 45.3125 15.671875 45.3125 23.6875 
L 45.3125 54.6875 
L 54.296875 54.6875 
L 54.296875 0 
L 45.3125 0 
L 45.3125 8.40625 
Q 42.046875 3.421875 37.71875 1 
Q 33.40625 -1.421875 27.6875 -1.421875 
Q 18.265625 -1.421875 13.375 4.4375 
Q 8.5 10.296875 8.5 21.578125 
z
M 31.109375 56 
z
" id="DejaVuSans-75"/>
      </defs>
      <g transform="translate(259.76794 694.58825)scale(0.1 -0.1)">
       <use xlink:href="#DejaVuSans-41"/>
       <use x="68.392578" xlink:href="#DejaVuSans-63"/>
       <use x="123.373047" xlink:href="#DejaVuSans-63"/>
       <use x="178.353516" xlink:href="#DejaVuSans-75"/>
       <use x="241.732422" xlink:href="#DejaVuSans-72"/>
       <use x="282.845703" xlink:href="#DejaVuSans-61"/>
       <use x="344.125" xlink:href="#DejaVuSans-74"/>
       <use x="383.333984" xlink:href="#DejaVuSans-65"/>
      </g>
     </g>
    </g>
    <g id="xtick_5">
     <g id="line2d_5">
      <g>
       <use style="stroke:#000000;stroke-width:0.8;" x="335.749091" xlink:href="#m3d93f657e3" y="668.792"/>
      </g>
     </g>
     <g id="text_5">
      <!-- corners -->
      <g transform="translate(316.980341 683.390437)scale(0.1 -0.1)">
       <use xlink:href="#DejaVuSans-63"/>
       <use x="54.980469" xlink:href="#DejaVuSans-6f"/>
       <use x="116.162109" xlink:href="#DejaVuSans-72"/>
       <use x="157.259766" xlink:href="#DejaVuSans-6e"/>
       <use x="220.638672" xlink:href="#DejaVuSans-65"/>
       <use x="282.162109" xlink:href="#DejaVuSans-72"/>
       <use x="323.275391" xlink:href="#DejaVuSans-73"/>
      </g>
      <!-- Total -->
      <g transform="translate(323.23581 694.58825)scale(0.1 -0.1)">
       <use xlink:href="#DejaVuSans-54"/>
       <use x="60.818359" xlink:href="#DejaVuSans-6f"/>
       <use x="122" xlink:href="#DejaVuSans-74"/>
       <use x="161.208984" xlink:href="#DejaVuSans-61"/>
       <use x="222.488281" xlink:href="#DejaVuSans-6c"/>
      </g>
     </g>
    </g>
    <g id="xtick_6">
     <g id="line2d_6">
      <g>
       <use style="stroke:#000000;stroke-width:0.8;" x="389.487273" xlink:href="#m3d93f657e3" y="668.792"/>
      </g>
     </g>
     <g id="text_6">
      <!-- defensive -->
      <defs>
       <path d="M 45.40625 46.390625 
L 45.40625 75.984375 
L 54.390625 75.984375 
L 54.390625 0 
L 45.40625 0 
L 45.40625 8.203125 
Q 42.578125 3.328125 38.25 0.953125 
Q 33.9375 -1.421875 27.875 -1.421875 
Q 17.96875 -1.421875 11.734375 6.484375 
Q 5.515625 14.40625 5.515625 27.296875 
Q 5.515625 40.1875 11.734375 48.09375 
Q 17.96875 56 27.875 56 
Q 33.9375 56 38.25 53.625 
Q 42.578125 51.265625 45.40625 46.390625 
z
M 14.796875 27.296875 
Q 14.796875 17.390625 18.875 11.75 
Q 22.953125 6.109375 30.078125 6.109375 
Q 37.203125 6.109375 41.296875 11.75 
Q 45.40625 17.390625 45.40625 27.296875 
Q 45.40625 37.203125 41.296875 42.84375 
Q 37.203125 48.484375 30.078125 48.484375 
Q 22.953125 48.484375 18.875 42.84375 
Q 14.796875 37.203125 14.796875 27.296875 
z
" id="DejaVuSans-64"/>
       <path d="M 37.109375 75.984375 
L 37.109375 68.5 
L 28.515625 68.5 
Q 23.6875 68.5 21.796875 66.546875 
Q 19.921875 64.59375 19.921875 59.515625 
L 19.921875 54.6875 
L 34.71875 54.6875 
L 34.71875 47.703125 
L 19.921875 47.703125 
L 19.921875 0 
L 10.890625 0 
L 10.890625 47.703125 
L 2.296875 47.703125 
L 2.296875 54.6875 
L 10.890625 54.6875 
L 10.890625 58.5 
Q 10.890625 67.625 15.140625 71.796875 
Q 19.390625 75.984375 28.609375 75.984375 
z
" id="DejaVuSans-66"/>
       <path d="M 2.984375 54.6875 
L 12.5 54.6875 
L 29.59375 8.796875 
L 46.6875 54.6875 
L 56.203125 54.6875 
L 35.6875 0 
L 23.484375 0 
z
" id="DejaVuSans-76"/>
      </defs>
      <g transform="translate(365.201335 683.390437)scale(0.1 -0.1)">
       <use xlink:href="#DejaVuSans-64"/>
       <use x="63.476562" xlink:href="#DejaVuSans-65"/>
       <use x="125" xlink:href="#DejaVuSans-66"/>
       <use x="160.205078" xlink:href="#DejaVuSans-65"/>
       <use x="221.728516" xlink:href="#DejaVuSans-6e"/>
       <use x="285.107422" xlink:href="#DejaVuSans-73"/>
       <use x="337.207031" xlink:href="#DejaVuSans-69"/>
       <use x="364.990234" xlink:href="#DejaVuSans-76"/>
       <use x="424.169922" xlink:href="#DejaVuSans-65"/>
      </g>
      <!-- Aerials -->
      <g transform="translate(372.488835 694.58825)scale(0.1 -0.1)">
       <use xlink:href="#DejaVuSans-41"/>
       <use x="68.392578" xlink:href="#DejaVuSans-65"/>
       <use x="129.916016" xlink:href="#DejaVuSans-72"/>
       <use x="171.029297" xlink:href="#DejaVuSans-69"/>
       <use x="198.8125" xlink:href="#DejaVuSans-61"/>
       <use x="260.091797" xlink:href="#DejaVuSans-6c"/>
       <use x="287.875" xlink:href="#DejaVuSans-73"/>
      </g>
     </g>
    </g>
    <g id="xtick_7">
     <g id="line2d_7">
      <g>
       <use style="stroke:#000000;stroke-width:0.8;" x="443.225455" xlink:href="#m3d93f657e3" y="668.792"/>
      </g>
     </g>
     <g id="text_7">
      <!-- dispossessed -->
      <defs>
       <path d="M 18.109375 8.203125 
L 18.109375 -20.796875 
L 9.078125 -20.796875 
L 9.078125 54.6875 
L 18.109375 54.6875 
L 18.109375 46.390625 
Q 20.953125 51.265625 25.265625 53.625 
Q 29.59375 56 35.59375 56 
Q 45.5625 56 51.78125 48.09375 
Q 58.015625 40.1875 58.015625 27.296875 
Q 58.015625 14.40625 51.78125 6.484375 
Q 45.5625 -1.421875 35.59375 -1.421875 
Q 29.59375 -1.421875 25.265625 0.953125 
Q 20.953125 3.328125 18.109375 8.203125 
z
M 48.6875 27.296875 
Q 48.6875 37.203125 44.609375 42.84375 
Q 40.53125 48.484375 33.40625 48.484375 
Q 26.265625 48.484375 22.1875 42.84375 
Q 18.109375 37.203125 18.109375 27.296875 
Q 18.109375 17.390625 22.1875 11.75 
Q 26.265625 6.109375 33.40625 6.109375 
Q 40.53125 6.109375 44.609375 11.75 
Q 48.6875 17.390625 48.6875 27.296875 
z
" id="DejaVuSans-70"/>
      </defs>
      <g transform="translate(410.077798 683.390437)scale(0.1 -0.1)">
       <use xlink:href="#DejaVuSans-64"/>
       <use x="63.476562" xlink:href="#DejaVuSans-69"/>
       <use x="91.259766" xlink:href="#DejaVuSans-73"/>
       <use x="143.359375" xlink:href="#DejaVuSans-70"/>
       <use x="206.835938" xlink:href="#DejaVuSans-6f"/>
       <use x="268.017578" xlink:href="#DejaVuSans-73"/>
       <use x="320.117188" xlink:href="#DejaVuSans-73"/>
       <use x="372.216797" xlink:href="#DejaVuSans-65"/>
       <use x="433.740234" xlink:href="#DejaVuSans-73"/>
       <use x="485.839844" xlink:href="#DejaVuSans-73"/>
       <use x="537.939453" xlink:href="#DejaVuSans-65"/>
       <use x="599.462891" xlink:href="#DejaVuSans-64"/>
      </g>
     </g>
    </g>
    <g id="xtick_8">
     <g id="line2d_8">
      <g>
       <use style="stroke:#000000;stroke-width:0.8;" x="496.963636" xlink:href="#m3d93f657e3" y="668.792"/>
      </g>
     </g>
     <g id="text_8">
      <!-- dribbled -->
      <defs>
       <path d="M 48.6875 27.296875 
Q 48.6875 37.203125 44.609375 42.84375 
Q 40.53125 48.484375 33.40625 48.484375 
Q 26.265625 48.484375 22.1875 42.84375 
Q 18.109375 37.203125 18.109375 27.296875 
Q 18.109375 17.390625 22.1875 11.75 
Q 26.265625 6.109375 33.40625 6.109375 
Q 40.53125 6.109375 44.609375 11.75 
Q 48.6875 17.390625 48.6875 27.296875 
z
M 18.109375 46.390625 
Q 20.953125 51.265625 25.265625 53.625 
Q 29.59375 56 35.59375 56 
Q 45.5625 56 51.78125 48.09375 
Q 58.015625 40.1875 58.015625 27.296875 
Q 58.015625 14.40625 51.78125 6.484375 
Q 45.5625 -1.421875 35.59375 -1.421875 
Q 29.59375 -1.421875 25.265625 0.953125 
Q 20.953125 3.328125 18.109375 8.203125 
L 18.109375 0 
L 9.078125 0 
L 9.078125 75.984375 
L 18.109375 75.984375 
z
" id="DejaVuSans-62"/>
      </defs>
      <g transform="translate(476.356605 683.390437)scale(0.1 -0.1)">
       <use xlink:href="#DejaVuSans-64"/>
       <use x="63.476562" xlink:href="#DejaVuSans-72"/>
       <use x="104.589844" xlink:href="#DejaVuSans-69"/>
       <use x="132.373047" xlink:href="#DejaVuSans-62"/>
       <use x="195.849609" xlink:href="#DejaVuSans-62"/>
       <use x="259.326172" xlink:href="#DejaVuSans-6c"/>
       <use x="287.109375" xlink:href="#DejaVuSans-65"/>
       <use x="348.632812" xlink:href="#DejaVuSans-64"/>
      </g>
      <!-- Past -->
      <defs>
       <path d="M 19.671875 64.796875 
L 19.671875 37.40625 
L 32.078125 37.40625 
Q 38.96875 37.40625 42.71875 40.96875 
Q 46.484375 44.53125 46.484375 51.125 
Q 46.484375 57.671875 42.71875 61.234375 
Q 38.96875 64.796875 32.078125 64.796875 
z
M 9.8125 72.90625 
L 32.078125 72.90625 
Q 44.34375 72.90625 50.609375 67.359375 
Q 56.890625 61.8125 56.890625 51.125 
Q 56.890625 40.328125 50.609375 34.8125 
Q 44.34375 29.296875 32.078125 29.296875 
L 19.671875 29.296875 
L 19.671875 0 
L 9.8125 0 
z
" id="DejaVuSans-50"/>
      </defs>
      <g transform="translate(486.323011 694.58825)scale(0.1 -0.1)">
       <use xlink:href="#DejaVuSans-50"/>
       <use x="60.240234" xlink:href="#DejaVuSans-61"/>
       <use x="121.519531" xlink:href="#DejaVuSans-73"/>
       <use x="173.619141" xlink:href="#DejaVuSans-74"/>
      </g>
     </g>
    </g>
    <g id="xtick_9">
     <g id="line2d_9">
      <g>
       <use style="stroke:#000000;stroke-width:0.8;" x="550.701818" xlink:href="#m3d93f657e3" y="668.792"/>
      </g>
     </g>
     <g id="text_9">
      <!-- dribbles -->
      <g transform="translate(530.664318 683.390437)scale(0.1 -0.1)">
       <use xlink:href="#DejaVuSans-64"/>
       <use x="63.476562" xlink:href="#DejaVuSans-72"/>
       <use x="104.589844" xlink:href="#DejaVuSans-69"/>
       <use x="132.373047" xlink:href="#DejaVuSans-62"/>
       <use x="195.849609" xlink:href="#DejaVuSans-62"/>
       <use x="259.326172" xlink:href="#DejaVuSans-6c"/>
       <use x="287.109375" xlink:href="#DejaVuSans-65"/>
       <use x="348.632812" xlink:href="#DejaVuSans-73"/>
      </g>
      <!-- Attempted -->
      <defs>
       <path d="M 52 44.1875 
Q 55.375 50.25 60.0625 53.125 
Q 64.75 56 71.09375 56 
Q 79.640625 56 84.28125 50.015625 
Q 88.921875 44.046875 88.921875 33.015625 
L 88.921875 0 
L 79.890625 0 
L 79.890625 32.71875 
Q 79.890625 40.578125 77.09375 44.375 
Q 74.3125 48.1875 68.609375 48.1875 
Q 61.625 48.1875 57.5625 43.546875 
Q 53.515625 38.921875 53.515625 30.90625 
L 53.515625 0 
L 44.484375 0 
L 44.484375 32.71875 
Q 44.484375 40.625 41.703125 44.40625 
Q 38.921875 48.1875 33.109375 48.1875 
Q 26.21875 48.1875 22.15625 43.53125 
Q 18.109375 38.875 18.109375 30.90625 
L 18.109375 0 
L 9.078125 0 
L 9.078125 54.6875 
L 18.109375 54.6875 
L 18.109375 46.1875 
Q 21.1875 51.21875 25.484375 53.609375 
Q 29.78125 56 35.6875 56 
Q 41.65625 56 45.828125 52.96875 
Q 50 49.953125 52 44.1875 
z
" id="DejaVuSans-6d"/>
      </defs>
      <g transform="translate(524.029943 694.58825)scale(0.1 -0.1)">
       <use xlink:href="#DejaVuSans-41"/>
       <use x="68.392578" xlink:href="#DejaVuSans-74"/>
       <use x="107.601562" xlink:href="#DejaVuSans-74"/>
       <use x="146.810547" xlink:href="#DejaVuSans-65"/>
       <use x="208.333984" xlink:href="#DejaVuSans-6d"/>
       <use x="305.746094" xlink:href="#DejaVuSans-70"/>
       <use x="369.222656" xlink:href="#DejaVuSans-74"/>
       <use x="408.431641" xlink:href="#DejaVuSans-65"/>
       <use x="469.955078" xlink:href="#DejaVuSans-64"/>
      </g>
     </g>
    </g>
    <g id="xtick_10">
     <g id="line2d_10">
      <g>
       <use style="stroke:#000000;stroke-width:0.8;" x="604.44" xlink:href="#m3d93f657e3" y="668.792"/>
      </g>
     </g>
     <g id="text_10">
      <!-- dribbles -->
      <g transform="translate(584.4025 683.390437)scale(0.1 -0.1)">
       <use xlink:href="#DejaVuSans-64"/>
       <use x="63.476562" xlink:href="#DejaVuSans-72"/>
       <use x="104.589844" xlink:href="#DejaVuSans-69"/>
       <use x="132.373047" xlink:href="#DejaVuSans-62"/>
       <use x="195.849609" xlink:href="#DejaVuSans-62"/>
       <use x="259.326172" xlink:href="#DejaVuSans-6c"/>
       <use x="287.109375" xlink:href="#DejaVuSans-65"/>
       <use x="348.632812" xlink:href="#DejaVuSans-73"/>
      </g>
      <!-- Lost -->
      <defs>
       <path d="M 9.8125 72.90625 
L 19.671875 72.90625 
L 19.671875 8.296875 
L 55.171875 8.296875 
L 55.171875 0 
L 9.8125 0 
z
" id="DejaVuSans-4c"/>
      </defs>
      <g transform="translate(594.030625 694.58825)scale(0.1 -0.1)">
       <use xlink:href="#DejaVuSans-4c"/>
       <use x="55.697266" xlink:href="#DejaVuSans-6f"/>
       <use x="116.878906" xlink:href="#DejaVuSans-73"/>
       <use x="168.978516" xlink:href="#DejaVuSans-74"/>
      </g>
     </g>
    </g>
    <g id="xtick_11">
     <g id="line2d_11">
      <g>
       <use style="stroke:#000000;stroke-width:0.8;" x="658.178182" xlink:href="#m3d93f657e3" y="668.792"/>
      </g>
     </g>
     <g id="text_11">
      <!-- dribbles -->
      <g transform="translate(638.140682 683.390437)scale(0.1 -0.1)">
       <use xlink:href="#DejaVuSans-64"/>
       <use x="63.476562" xlink:href="#DejaVuSans-72"/>
       <use x="104.589844" xlink:href="#DejaVuSans-69"/>
       <use x="132.373047" xlink:href="#DejaVuSans-62"/>
       <use x="195.849609" xlink:href="#DejaVuSans-62"/>
       <use x="259.326172" xlink:href="#DejaVuSans-6c"/>
       <use x="287.109375" xlink:href="#DejaVuSans-65"/>
       <use x="348.632812" xlink:href="#DejaVuSans-73"/>
      </g>
      <!-- Won -->
      <g transform="translate(647.010213 694.58825)scale(0.1 -0.1)">
       <use xlink:href="#DejaVuSans-57"/>
       <use x="98.798828" xlink:href="#DejaVuSans-6f"/>
       <use x="159.980469" xlink:href="#DejaVuSans-6e"/>
      </g>
     </g>
    </g>
    <g id="xtick_12">
     <g id="line2d_12">
      <g>
       <use style="stroke:#000000;stroke-width:0.8;" x="711.916364" xlink:href="#m3d93f657e3" y="668.792"/>
      </g>
     </g>
     <g id="text_12">
      <!-- errors -->
      <g transform="translate(697.011676 683.390437)scale(0.1 -0.1)">
       <use xlink:href="#DejaVuSans-65"/>
       <use x="61.523438" xlink:href="#DejaVuSans-72"/>
       <use x="102.621094" xlink:href="#DejaVuSans-72"/>
       <use x="143.703125" xlink:href="#DejaVuSans-6f"/>
       <use x="204.884766" xlink:href="#DejaVuSans-72"/>
       <use x="245.998047" xlink:href="#DejaVuSans-73"/>
      </g>
      <!-- Count -->
      <defs>
       <path d="M 64.40625 67.28125 
L 64.40625 56.890625 
Q 59.421875 61.53125 53.78125 63.8125 
Q 48.140625 66.109375 41.796875 66.109375 
Q 29.296875 66.109375 22.65625 58.46875 
Q 16.015625 50.828125 16.015625 36.375 
Q 16.015625 21.96875 22.65625 14.328125 
Q 29.296875 6.6875 41.796875 6.6875 
Q 48.140625 6.6875 53.78125 8.984375 
Q 59.421875 11.28125 64.40625 15.921875 
L 64.40625 5.609375 
Q 59.234375 2.09375 53.4375 0.328125 
Q 47.65625 -1.421875 41.21875 -1.421875 
Q 24.65625 -1.421875 15.125 8.703125 
Q 5.609375 18.84375 5.609375 36.375 
Q 5.609375 53.953125 15.125 64.078125 
Q 24.65625 74.21875 41.21875 74.21875 
Q 47.75 74.21875 53.53125 72.484375 
Q 59.328125 70.75 64.40625 67.28125 
z
" id="DejaVuSans-43"/>
      </defs>
      <g transform="translate(697.067926 694.58825)scale(0.1 -0.1)">
       <use xlink:href="#DejaVuSans-43"/>
       <use x="69.824219" xlink:href="#DejaVuSans-6f"/>
       <use x="131.005859" xlink:href="#DejaVuSans-75"/>
       <use x="194.384766" xlink:href="#DejaVuSans-6e"/>
       <use x="257.763672" xlink:href="#DejaVuSans-74"/>
      </g>
     </g>
    </g>
    <g id="xtick_13">
     <g id="line2d_13">
      <g>
       <use style="stroke:#000000;stroke-width:0.8;" x="765.654545" xlink:href="#m3d93f657e3" y="668.792"/>
      </g>
     </g>
     <g id="text_13">
      <!-- fouls -->
      <g transform="translate(753.672514 683.390437)scale(0.1 -0.1)">
       <use xlink:href="#DejaVuSans-66"/>
       <use x="35.205078" xlink:href="#DejaVuSans-6f"/>
       <use x="96.386719" xlink:href="#DejaVuSans-75"/>
       <use x="159.765625" xlink:href="#DejaVuSans-6c"/>
       <use x="187.548828" xlink:href="#DejaVuSans-73"/>
      </g>
      <!-- Commited -->
      <g transform="translate(739.763139 694.58825)scale(0.1 -0.1)">
       <use xlink:href="#DejaVuSans-43"/>
       <use x="69.824219" xlink:href="#DejaVuSans-6f"/>
       <use x="131.005859" xlink:href="#DejaVuSans-6d"/>
       <use x="228.417969" xlink:href="#DejaVuSans-6d"/>
       <use x="325.830078" xlink:href="#DejaVuSans-69"/>
       <use x="353.613281" xlink:href="#DejaVuSans-74"/>
       <use x="392.822266" xlink:href="#DejaVuSans-65"/>
       <use x="454.345703" xlink:href="#DejaVuSans-64"/>
      </g>
     </g>
    </g>
    <g id="xtick_14">
     <g id="line2d_14">
      <g>
       <use style="stroke:#000000;stroke-width:0.8;" x="819.392727" xlink:href="#m3d93f657e3" y="668.792"/>
      </g>
     </g>
     <g id="text_14">
      <!-- interceptions -->
      <g transform="translate(786.562259 683.390437)scale(0.1 -0.1)">
       <use xlink:href="#DejaVuSans-69"/>
       <use x="27.783203" xlink:href="#DejaVuSans-6e"/>
       <use x="91.162109" xlink:href="#DejaVuSans-74"/>
       <use x="130.371094" xlink:href="#DejaVuSans-65"/>
       <use x="191.894531" xlink:href="#DejaVuSans-72"/>
       <use x="232.976562" xlink:href="#DejaVuSans-63"/>
       <use x="287.957031" xlink:href="#DejaVuSans-65"/>
       <use x="349.480469" xlink:href="#DejaVuSans-70"/>
       <use x="412.957031" xlink:href="#DejaVuSans-74"/>
       <use x="452.166016" xlink:href="#DejaVuSans-69"/>
       <use x="479.949219" xlink:href="#DejaVuSans-6f"/>
       <use x="541.130859" xlink:href="#DejaVuSans-6e"/>
       <use x="604.509766" xlink:href="#DejaVuSans-73"/>
      </g>
     </g>
    </g>
    <g id="xtick_15">
     <g id="line2d_15">
      <g>
       <use style="stroke:#000000;stroke-width:0.8;" x="873.130909" xlink:href="#m3d93f657e3" y="668.792"/>
      </g>
     </g>
     <g id="text_15">
      <!-- offensive -->
      <g transform="translate(850.276222 683.390437)scale(0.1 -0.1)">
       <use xlink:href="#DejaVuSans-6f"/>
       <use x="61.181641" xlink:href="#DejaVuSans-66"/>
       <use x="96.386719" xlink:href="#DejaVuSans-66"/>
       <use x="131.591797" xlink:href="#DejaVuSans-65"/>
       <use x="193.115234" xlink:href="#DejaVuSans-6e"/>
       <use x="256.494141" xlink:href="#DejaVuSans-73"/>
       <use x="308.59375" xlink:href="#DejaVuSans-69"/>
       <use x="336.376953" xlink:href="#DejaVuSans-76"/>
       <use x="395.556641" xlink:href="#DejaVuSans-65"/>
      </g>
      <!-- Aerials -->
      <g transform="translate(856.132472 694.58825)scale(0.1 -0.1)">
       <use xlink:href="#DejaVuSans-41"/>
       <use x="68.392578" xlink:href="#DejaVuSans-65"/>
       <use x="129.916016" xlink:href="#DejaVuSans-72"/>
       <use x="171.029297" xlink:href="#DejaVuSans-69"/>
       <use x="198.8125" xlink:href="#DejaVuSans-61"/>
       <use x="260.091797" xlink:href="#DejaVuSans-6c"/>
       <use x="287.875" xlink:href="#DejaVuSans-73"/>
      </g>
     </g>
    </g>
    <g id="xtick_16">
     <g id="line2d_16">
      <g>
       <use style="stroke:#000000;stroke-width:0.8;" x="926.869091" xlink:href="#m3d93f657e3" y="668.792"/>
      </g>
     </g>
     <g id="text_16">
      <!-- offsides -->
      <g transform="translate(907.440185 683.390437)scale(0.1 -0.1)">
       <use xlink:href="#DejaVuSans-6f"/>
       <use x="61.181641" xlink:href="#DejaVuSans-66"/>
       <use x="96.386719" xlink:href="#DejaVuSans-66"/>
       <use x="131.591797" xlink:href="#DejaVuSans-73"/>
       <use x="183.691406" xlink:href="#DejaVuSans-69"/>
       <use x="211.474609" xlink:href="#DejaVuSans-64"/>
       <use x="274.951172" xlink:href="#DejaVuSans-65"/>
       <use x="336.474609" xlink:href="#DejaVuSans-73"/>
      </g>
      <!-- Caught -->
      <defs>
       <path d="M 45.40625 27.984375 
Q 45.40625 37.75 41.375 43.109375 
Q 37.359375 48.484375 30.078125 48.484375 
Q 22.859375 48.484375 18.828125 43.109375 
Q 14.796875 37.75 14.796875 27.984375 
Q 14.796875 18.265625 18.828125 12.890625 
Q 22.859375 7.515625 30.078125 7.515625 
Q 37.359375 7.515625 41.375 12.890625 
Q 45.40625 18.265625 45.40625 27.984375 
z
M 54.390625 6.78125 
Q 54.390625 -7.171875 48.1875 -13.984375 
Q 42 -20.796875 29.203125 -20.796875 
Q 24.46875 -20.796875 20.265625 -20.09375 
Q 16.0625 -19.390625 12.109375 -17.921875 
L 12.109375 -9.1875 
Q 16.0625 -11.328125 19.921875 -12.34375 
Q 23.78125 -13.375 27.78125 -13.375 
Q 36.625 -13.375 41.015625 -8.765625 
Q 45.40625 -4.15625 45.40625 5.171875 
L 45.40625 9.625 
Q 42.625 4.78125 38.28125 2.390625 
Q 33.9375 0 27.875 0 
Q 17.828125 0 11.671875 7.65625 
Q 5.515625 15.328125 5.515625 27.984375 
Q 5.515625 40.671875 11.671875 48.328125 
Q 17.828125 56 27.875 56 
Q 33.9375 56 38.28125 53.609375 
Q 42.625 51.21875 45.40625 46.390625 
L 45.40625 54.6875 
L 54.390625 54.6875 
z
" id="DejaVuSans-67"/>
       <path d="M 54.890625 33.015625 
L 54.890625 0 
L 45.90625 0 
L 45.90625 32.71875 
Q 45.90625 40.484375 42.875 44.328125 
Q 39.84375 48.1875 33.796875 48.1875 
Q 26.515625 48.1875 22.3125 43.546875 
Q 18.109375 38.921875 18.109375 30.90625 
L 18.109375 0 
L 9.078125 0 
L 9.078125 75.984375 
L 18.109375 75.984375 
L 18.109375 46.1875 
Q 21.34375 51.125 25.703125 53.5625 
Q 30.078125 56 35.796875 56 
Q 45.21875 56 50.046875 50.171875 
Q 54.890625 44.34375 54.890625 33.015625 
z
" id="DejaVuSans-68"/>
      </defs>
      <g transform="translate(908.841747 694.58825)scale(0.1 -0.1)">
       <use xlink:href="#DejaVuSans-43"/>
       <use x="69.824219" xlink:href="#DejaVuSans-61"/>
       <use x="131.103516" xlink:href="#DejaVuSans-75"/>
       <use x="194.482422" xlink:href="#DejaVuSans-67"/>
       <use x="257.958984" xlink:href="#DejaVuSans-68"/>
       <use x="321.337891" xlink:href="#DejaVuSans-74"/>
      </g>
     </g>
    </g>
    <g id="xtick_17">
     <g id="line2d_17">
      <g>
       <use style="stroke:#000000;stroke-width:0.8;" x="980.607273" xlink:href="#m3d93f657e3" y="668.792"/>
      </g>
     </g>
     <g id="text_17">
      <!-- passes -->
      <g transform="translate(963.478366 683.390437)scale(0.1 -0.1)">
       <use xlink:href="#DejaVuSans-70"/>
       <use x="63.476562" xlink:href="#DejaVuSans-61"/>
       <use x="124.755859" xlink:href="#DejaVuSans-73"/>
       <use x="176.855469" xlink:href="#DejaVuSans-73"/>
       <use x="228.955078" xlink:href="#DejaVuSans-65"/>
       <use x="290.478516" xlink:href="#DejaVuSans-73"/>
      </g>
      <!-- Accurate -->
      <g transform="translate(958.364304 694.58825)scale(0.1 -0.1)">
       <use xlink:href="#DejaVuSans-41"/>
       <use x="68.392578" xlink:href="#DejaVuSans-63"/>
       <use x="123.373047" xlink:href="#DejaVuSans-63"/>
       <use x="178.353516" xlink:href="#DejaVuSans-75"/>
       <use x="241.732422" xlink:href="#DejaVuSans-72"/>
       <use x="282.845703" xlink:href="#DejaVuSans-61"/>
       <use x="344.125" xlink:href="#DejaVuSans-74"/>
       <use x="383.333984" xlink:href="#DejaVuSans-65"/>
      </g>
     </g>
    </g>
    <g id="xtick_18">
     <g id="line2d_18">
      <g>
       <use style="stroke:#000000;stroke-width:0.8;" x="1034.345455" xlink:href="#m3d93f657e3" y="668.792"/>
      </g>
     </g>
     <g id="text_18">
      <!-- passes -->
      <g transform="translate(1017.216548 683.390437)scale(0.1 -0.1)">
       <use xlink:href="#DejaVuSans-70"/>
       <use x="63.476562" xlink:href="#DejaVuSans-61"/>
       <use x="124.755859" xlink:href="#DejaVuSans-73"/>
       <use x="176.855469" xlink:href="#DejaVuSans-73"/>
       <use x="228.955078" xlink:href="#DejaVuSans-65"/>
       <use x="290.478516" xlink:href="#DejaVuSans-73"/>
      </g>
      <!-- Key -->
      <defs>
       <path d="M 9.8125 72.90625 
L 19.671875 72.90625 
L 19.671875 42.09375 
L 52.390625 72.90625 
L 65.09375 72.90625 
L 28.90625 38.921875 
L 67.671875 0 
L 54.6875 0 
L 19.671875 35.109375 
L 19.671875 0 
L 9.8125 0 
z
" id="DejaVuSans-4b"/>
       <path d="M 32.171875 -5.078125 
Q 28.375 -14.84375 24.75 -17.8125 
Q 21.140625 -20.796875 15.09375 -20.796875 
L 7.90625 -20.796875 
L 7.90625 -13.28125 
L 13.1875 -13.28125 
Q 16.890625 -13.28125 18.9375 -11.515625 
Q 21 -9.765625 23.484375 -3.21875 
L 25.09375 0.875 
L 2.984375 54.6875 
L 12.5 54.6875 
L 29.59375 11.921875 
L 46.6875 54.6875 
L 56.203125 54.6875 
z
" id="DejaVuSans-79"/>
      </defs>
      <g transform="translate(1025.034517 694.58825)scale(0.1 -0.1)">
       <use xlink:href="#DejaVuSans-4b"/>
       <use x="65.498047" xlink:href="#DejaVuSans-65"/>
       <use x="127.021484" xlink:href="#DejaVuSans-79"/>
      </g>
     </g>
    </g>
    <g id="xtick_19">
     <g id="line2d_19">
      <g>
       <use style="stroke:#000000;stroke-width:0.8;" x="1088.083636" xlink:href="#m3d93f657e3" y="668.792"/>
      </g>
     </g>
     <g id="text_19">
      <!-- passes -->
      <g transform="translate(1070.95473 683.390437)scale(0.1 -0.1)">
       <use xlink:href="#DejaVuSans-70"/>
       <use x="63.476562" xlink:href="#DejaVuSans-61"/>
       <use x="124.755859" xlink:href="#DejaVuSans-73"/>
       <use x="176.855469" xlink:href="#DejaVuSans-73"/>
       <use x="228.955078" xlink:href="#DejaVuSans-65"/>
       <use x="290.478516" xlink:href="#DejaVuSans-73"/>
      </g>
      <!-- Total -->
      <g transform="translate(1075.570355 694.58825)scale(0.1 -0.1)">
       <use xlink:href="#DejaVuSans-54"/>
       <use x="60.818359" xlink:href="#DejaVuSans-6f"/>
       <use x="122" xlink:href="#DejaVuSans-74"/>
       <use x="161.208984" xlink:href="#DejaVuSans-61"/>
       <use x="222.488281" xlink:href="#DejaVuSans-6c"/>
      </g>
     </g>
    </g>
    <g id="xtick_20">
     <g id="line2d_20">
      <g>
       <use style="stroke:#000000;stroke-width:0.8;" x="1141.821818" xlink:href="#m3d93f657e3" y="668.792"/>
      </g>
     </g>
     <g id="text_20">
      <!-- possession -->
      <g transform="translate(1114.475724 683.390437)scale(0.1 -0.1)">
       <use xlink:href="#DejaVuSans-70"/>
       <use x="63.476562" xlink:href="#DejaVuSans-6f"/>
       <use x="124.658203" xlink:href="#DejaVuSans-73"/>
       <use x="176.757812" xlink:href="#DejaVuSans-73"/>
       <use x="228.857422" xlink:href="#DejaVuSans-65"/>
       <use x="290.380859" xlink:href="#DejaVuSans-73"/>
       <use x="342.480469" xlink:href="#DejaVuSans-73"/>
       <use x="394.580078" xlink:href="#DejaVuSans-69"/>
       <use x="422.363281" xlink:href="#DejaVuSans-6f"/>
       <use x="483.544922" xlink:href="#DejaVuSans-6e"/>
      </g>
     </g>
    </g>
    <g id="xtick_21">
     <g id="line2d_21">
      <g>
       <use style="stroke:#000000;stroke-width:0.8;" x="1195.56" xlink:href="#m3d93f657e3" y="668.792"/>
      </g>
     </g>
     <g id="text_21">
      <!-- shots -->
      <g transform="translate(1182.162344 683.390437)scale(0.1 -0.1)">
       <use xlink:href="#DejaVuSans-73"/>
       <use x="52.099609" xlink:href="#DejaVuSans-68"/>
       <use x="115.478516" xlink:href="#DejaVuSans-6f"/>
       <use x="176.660156" xlink:href="#DejaVuSans-74"/>
       <use x="215.869141" xlink:href="#DejaVuSans-73"/>
      </g>
      <!-- Blocked -->
      <defs>
       <path d="M 19.671875 34.8125 
L 19.671875 8.109375 
L 35.5 8.109375 
Q 43.453125 8.109375 47.28125 11.40625 
Q 51.125 14.703125 51.125 21.484375 
Q 51.125 28.328125 47.28125 31.5625 
Q 43.453125 34.8125 35.5 34.8125 
z
M 19.671875 64.796875 
L 19.671875 42.828125 
L 34.28125 42.828125 
Q 41.5 42.828125 45.03125 45.53125 
Q 48.578125 48.25 48.578125 53.8125 
Q 48.578125 59.328125 45.03125 62.0625 
Q 41.5 64.796875 34.28125 64.796875 
z
M 9.8125 72.90625 
L 35.015625 72.90625 
Q 46.296875 72.90625 52.390625 68.21875 
Q 58.5 63.53125 58.5 54.890625 
Q 58.5 48.1875 55.375 44.234375 
Q 52.25 40.28125 46.1875 39.3125 
Q 53.46875 37.75 57.5 32.78125 
Q 61.53125 27.828125 61.53125 20.40625 
Q 61.53125 10.640625 54.890625 5.3125 
Q 48.25 0 35.984375 0 
L 9.8125 0 
z
" id="DejaVuSans-42"/>
       <path d="M 9.078125 75.984375 
L 18.109375 75.984375 
L 18.109375 31.109375 
L 44.921875 54.6875 
L 56.390625 54.6875 
L 27.390625 29.109375 
L 57.625 0 
L 45.90625 0 
L 18.109375 26.703125 
L 18.109375 0 
L 9.078125 0 
z
" id="DejaVuSans-6b"/>
      </defs>
      <g transform="translate(1175.788125 694.58825)scale(0.1 -0.1)">
       <use xlink:href="#DejaVuSans-42"/>
       <use x="68.603516" xlink:href="#DejaVuSans-6c"/>
       <use x="96.386719" xlink:href="#DejaVuSans-6f"/>
       <use x="157.568359" xlink:href="#DejaVuSans-63"/>
       <use x="212.548828" xlink:href="#DejaVuSans-6b"/>
       <use x="270.412109" xlink:href="#DejaVuSans-65"/>
       <use x="331.935547" xlink:href="#DejaVuSans-64"/>
      </g>
     </g>
    </g>
    <g id="xtick_22">
     <g id="line2d_22">
      <g>
       <use style="stroke:#000000;stroke-width:0.8;" x="1249.298182" xlink:href="#m3d93f657e3" y="668.792"/>
      </g>
     </g>
     <g id="text_22">
      <!-- shots -->
      <g transform="translate(1235.900526 683.390437)scale(0.1 -0.1)">
       <use xlink:href="#DejaVuSans-73"/>
       <use x="52.099609" xlink:href="#DejaVuSans-68"/>
       <use x="115.478516" xlink:href="#DejaVuSans-6f"/>
       <use x="176.660156" xlink:href="#DejaVuSans-74"/>
       <use x="215.869141" xlink:href="#DejaVuSans-73"/>
      </g>
      <!-- Off -->
      <defs>
       <path d="M 39.40625 66.21875 
Q 28.65625 66.21875 22.328125 58.203125 
Q 16.015625 50.203125 16.015625 36.375 
Q 16.015625 22.609375 22.328125 14.59375 
Q 28.65625 6.59375 39.40625 6.59375 
Q 50.140625 6.59375 56.421875 14.59375 
Q 62.703125 22.609375 62.703125 36.375 
Q 62.703125 50.203125 56.421875 58.203125 
Q 50.140625 66.21875 39.40625 66.21875 
z
M 39.40625 74.21875 
Q 54.734375 74.21875 63.90625 63.9375 
Q 73.09375 53.65625 73.09375 36.375 
Q 73.09375 19.140625 63.90625 8.859375 
Q 54.734375 -1.421875 39.40625 -1.421875 
Q 24.03125 -1.421875 14.8125 8.828125 
Q 5.609375 19.09375 5.609375 36.375 
Q 5.609375 53.65625 14.8125 63.9375 
Q 24.03125 74.21875 39.40625 74.21875 
z
" id="DejaVuSans-4f"/>
      </defs>
      <g transform="translate(1241.841932 694.58825)scale(0.1 -0.1)">
       <use xlink:href="#DejaVuSans-4f"/>
       <use x="78.710938" xlink:href="#DejaVuSans-66"/>
       <use x="113.916016" xlink:href="#DejaVuSans-66"/>
      </g>
      <!-- Target -->
      <g transform="translate(1232.927088 705.786063)scale(0.1 -0.1)">
       <use xlink:href="#DejaVuSans-54"/>
       <use x="60.833984" xlink:href="#DejaVuSans-61"/>
       <use x="122.113281" xlink:href="#DejaVuSans-72"/>
       <use x="163.210938" xlink:href="#DejaVuSans-67"/>
       <use x="226.6875" xlink:href="#DejaVuSans-65"/>
       <use x="288.210938" xlink:href="#DejaVuSans-74"/>
      </g>
     </g>
    </g>
    <g id="xtick_23">
     <g id="line2d_23">
      <g>
       <use style="stroke:#000000;stroke-width:0.8;" x="1303.036364" xlink:href="#m3d93f657e3" y="668.792"/>
      </g>
     </g>
     <g id="text_23">
      <!-- shots -->
      <g transform="translate(1289.638707 683.390437)scale(0.1 -0.1)">
       <use xlink:href="#DejaVuSans-73"/>
       <use x="52.099609" xlink:href="#DejaVuSans-68"/>
       <use x="115.478516" xlink:href="#DejaVuSans-6f"/>
       <use x="176.660156" xlink:href="#DejaVuSans-74"/>
       <use x="215.869141" xlink:href="#DejaVuSans-73"/>
      </g>
      <!-- On -->
      <g transform="translate(1295.931676 694.58825)scale(0.1 -0.1)">
       <use xlink:href="#DejaVuSans-4f"/>
       <use x="78.710938" xlink:href="#DejaVuSans-6e"/>
      </g>
      <!-- Target -->
      <g transform="translate(1286.66527 705.786063)scale(0.1 -0.1)">
       <use xlink:href="#DejaVuSans-54"/>
       <use x="60.833984" xlink:href="#DejaVuSans-61"/>
       <use x="122.113281" xlink:href="#DejaVuSans-72"/>
       <use x="163.210938" xlink:href="#DejaVuSans-67"/>
       <use x="226.6875" xlink:href="#DejaVuSans-65"/>
       <use x="288.210938" xlink:href="#DejaVuSans-74"/>
      </g>
     </g>
    </g>
    <g id="xtick_24">
     <g id="line2d_24">
      <g>
       <use style="stroke:#000000;stroke-width:0.8;" x="1356.774545" xlink:href="#m3d93f657e3" y="668.792"/>
      </g>
     </g>
     <g id="text_24">
      <!-- shots -->
      <g transform="translate(1343.376889 683.390437)scale(0.1 -0.1)">
       <use xlink:href="#DejaVuSans-73"/>
       <use x="52.099609" xlink:href="#DejaVuSans-68"/>
       <use x="115.478516" xlink:href="#DejaVuSans-6f"/>
       <use x="176.660156" xlink:href="#DejaVuSans-74"/>
       <use x="215.869141" xlink:href="#DejaVuSans-73"/>
      </g>
      <!-- Total -->
      <g transform="translate(1344.261264 694.58825)scale(0.1 -0.1)">
       <use xlink:href="#DejaVuSans-54"/>
       <use x="60.818359" xlink:href="#DejaVuSans-6f"/>
       <use x="122" xlink:href="#DejaVuSans-74"/>
       <use x="161.208984" xlink:href="#DejaVuSans-61"/>
       <use x="222.488281" xlink:href="#DejaVuSans-6c"/>
      </g>
     </g>
    </g>
    <g id="xtick_25">
     <g id="line2d_25">
      <g>
       <use style="stroke:#000000;stroke-width:0.8;" x="1410.512727" xlink:href="#m3d93f657e3" y="668.792"/>
      </g>
     </g>
     <g id="text_25">
      <!-- tackle -->
      <g transform="translate(1395.378352 683.390437)scale(0.1 -0.1)">
       <use xlink:href="#DejaVuSans-74"/>
       <use x="39.208984" xlink:href="#DejaVuSans-61"/>
       <use x="100.488281" xlink:href="#DejaVuSans-63"/>
       <use x="155.46875" xlink:href="#DejaVuSans-6b"/>
       <use x="213.378906" xlink:href="#DejaVuSans-6c"/>
       <use x="241.162109" xlink:href="#DejaVuSans-65"/>
      </g>
      <!-- Successful -->
      <defs>
       <path d="M 53.515625 70.515625 
L 53.515625 60.890625 
Q 47.90625 63.578125 42.921875 64.890625 
Q 37.9375 66.21875 33.296875 66.21875 
Q 25.25 66.21875 20.875 63.09375 
Q 16.5 59.96875 16.5 54.203125 
Q 16.5 49.359375 19.40625 46.890625 
Q 22.3125 44.4375 30.421875 42.921875 
L 36.375 41.703125 
Q 47.40625 39.59375 52.65625 34.296875 
Q 57.90625 29 57.90625 20.125 
Q 57.90625 9.515625 50.796875 4.046875 
Q 43.703125 -1.421875 29.984375 -1.421875 
Q 24.8125 -1.421875 18.96875 -0.25 
Q 13.140625 0.921875 6.890625 3.21875 
L 6.890625 13.375 
Q 12.890625 10.015625 18.65625 8.296875 
Q 24.421875 6.59375 29.984375 6.59375 
Q 38.421875 6.59375 43.015625 9.90625 
Q 47.609375 13.234375 47.609375 19.390625 
Q 47.609375 24.75 44.3125 27.78125 
Q 41.015625 30.8125 33.5 32.328125 
L 27.484375 33.5 
Q 16.453125 35.6875 11.515625 40.375 
Q 6.59375 45.0625 6.59375 53.421875 
Q 6.59375 63.09375 13.40625 68.65625 
Q 20.21875 74.21875 32.171875 74.21875 
Q 37.3125 74.21875 42.625 73.28125 
Q 47.953125 72.359375 53.515625 70.515625 
z
" id="DejaVuSans-53"/>
      </defs>
      <g transform="translate(1384.067415 694.58825)scale(0.1 -0.1)">
       <use xlink:href="#DejaVuSans-53"/>
       <use x="63.476562" xlink:href="#DejaVuSans-75"/>
       <use x="126.855469" xlink:href="#DejaVuSans-63"/>
       <use x="181.835938" xlink:href="#DejaVuSans-63"/>
       <use x="236.816406" xlink:href="#DejaVuSans-65"/>
       <use x="298.339844" xlink:href="#DejaVuSans-73"/>
       <use x="350.439453" xlink:href="#DejaVuSans-73"/>
       <use x="402.539062" xlink:href="#DejaVuSans-66"/>
       <use x="437.744141" xlink:href="#DejaVuSans-75"/>
       <use x="501.123047" xlink:href="#DejaVuSans-6c"/>
      </g>
     </g>
    </g>
    <g id="xtick_26">
     <g id="line2d_26">
      <g>
       <use style="stroke:#000000;stroke-width:0.8;" x="1464.250909" xlink:href="#m3d93f657e3" y="668.792"/>
      </g>
     </g>
     <g id="text_26">
      <!-- tackle -->
      <g transform="translate(1449.116534 683.390437)scale(0.1 -0.1)">
       <use xlink:href="#DejaVuSans-74"/>
       <use x="39.208984" xlink:href="#DejaVuSans-61"/>
       <use x="100.488281" xlink:href="#DejaVuSans-63"/>
       <use x="155.46875" xlink:href="#DejaVuSans-6b"/>
       <use x="213.378906" xlink:href="#DejaVuSans-6c"/>
       <use x="241.162109" xlink:href="#DejaVuSans-65"/>
      </g>
      <!-- Unsuccesful -->
      <defs>
       <path d="M 8.6875 72.90625 
L 18.609375 72.90625 
L 18.609375 28.609375 
Q 18.609375 16.890625 22.84375 11.734375 
Q 27.09375 6.59375 36.625 6.59375 
Q 46.09375 6.59375 50.34375 11.734375 
Q 54.59375 16.890625 54.59375 28.609375 
L 54.59375 72.90625 
L 64.5 72.90625 
L 64.5 27.390625 
Q 64.5 13.140625 57.4375 5.859375 
Q 50.390625 -1.421875 36.625 -1.421875 
Q 22.796875 -1.421875 15.734375 5.859375 
Q 8.6875 13.140625 8.6875 27.390625 
z
" id="DejaVuSans-55"/>
      </defs>
      <g transform="translate(1434.15169 694.58825)scale(0.1 -0.1)">
       <use xlink:href="#DejaVuSans-55"/>
       <use x="73.193359" xlink:href="#DejaVuSans-6e"/>
       <use x="136.572266" xlink:href="#DejaVuSans-73"/>
       <use x="188.671875" xlink:href="#DejaVuSans-75"/>
       <use x="252.050781" xlink:href="#DejaVuSans-63"/>
       <use x="307.03125" xlink:href="#DejaVuSans-63"/>
       <use x="362.011719" xlink:href="#DejaVuSans-65"/>
       <use x="423.535156" xlink:href="#DejaVuSans-73"/>
       <use x="475.634766" xlink:href="#DejaVuSans-66"/>
       <use x="510.839844" xlink:href="#DejaVuSans-75"/>
       <use x="574.21875" xlink:href="#DejaVuSans-6c"/>
      </g>
     </g>
    </g>
    <g id="xtick_27">
     <g id="line2d_27">
      <g>
       <use style="stroke:#000000;stroke-width:0.8;" x="1517.989091" xlink:href="#m3d93f657e3" y="668.792"/>
      </g>
     </g>
     <g id="text_27">
      <!-- tackles -->
      <g transform="translate(1500.250028 683.390437)scale(0.1 -0.1)">
       <use xlink:href="#DejaVuSans-74"/>
       <use x="39.208984" xlink:href="#DejaVuSans-61"/>
       <use x="100.488281" xlink:href="#DejaVuSans-63"/>
       <use x="155.46875" xlink:href="#DejaVuSans-6b"/>
       <use x="213.378906" xlink:href="#DejaVuSans-6c"/>
       <use x="241.162109" xlink:href="#DejaVuSans-65"/>
       <use x="302.685547" xlink:href="#DejaVuSans-73"/>
      </g>
      <!-- Total -->
      <g transform="translate(1505.47581 694.58825)scale(0.1 -0.1)">
       <use xlink:href="#DejaVuSans-54"/>
       <use x="60.818359" xlink:href="#DejaVuSans-6f"/>
       <use x="122" xlink:href="#DejaVuSans-74"/>
       <use x="161.208984" xlink:href="#DejaVuSans-61"/>
       <use x="222.488281" xlink:href="#DejaVuSans-6c"/>
      </g>
     </g>
    </g>
    <g id="xtick_28">
     <g id="line2d_28">
      <g>
       <use style="stroke:#000000;stroke-width:0.8;" x="1571.727273" xlink:href="#m3d93f657e3" y="668.792"/>
      </g>
     </g>
     <g id="text_28">
      <!-- throw -->
      <defs>
       <path d="M 4.203125 54.6875 
L 13.1875 54.6875 
L 24.421875 12.015625 
L 35.59375 54.6875 
L 46.1875 54.6875 
L 57.421875 12.015625 
L 68.609375 54.6875 
L 77.59375 54.6875 
L 63.28125 0 
L 52.6875 0 
L 40.921875 44.828125 
L 29.109375 0 
L 18.5 0 
z
" id="DejaVuSans-77"/>
      </defs>
      <g transform="translate(1557.396023 683.390437)scale(0.1 -0.1)">
       <use xlink:href="#DejaVuSans-74"/>
       <use x="39.208984" xlink:href="#DejaVuSans-68"/>
       <use x="102.587891" xlink:href="#DejaVuSans-72"/>
       <use x="143.669922" xlink:href="#DejaVuSans-6f"/>
       <use x="204.851562" xlink:href="#DejaVuSans-77"/>
      </g>
      <!-- Ins -->
      <defs>
       <path d="M 9.8125 72.90625 
L 19.671875 72.90625 
L 19.671875 0 
L 9.8125 0 
z
" id="DejaVuSans-49"/>
      </defs>
      <g transform="translate(1564.478835 694.58825)scale(0.1 -0.1)">
       <use xlink:href="#DejaVuSans-49"/>
       <use x="29.492188" xlink:href="#DejaVuSans-6e"/>
       <use x="92.871094" xlink:href="#DejaVuSans-73"/>
      </g>
      <!-- Accurate -->
      <g transform="translate(1549.484304 705.786063)scale(0.1 -0.1)">
       <use xlink:href="#DejaVuSans-41"/>
       <use x="68.392578" xlink:href="#DejaVuSans-63"/>
       <use x="123.373047" xlink:href="#DejaVuSans-63"/>
       <use x="178.353516" xlink:href="#DejaVuSans-75"/>
       <use x="241.732422" xlink:href="#DejaVuSans-72"/>
       <use x="282.845703" xlink:href="#DejaVuSans-61"/>
       <use x="344.125" xlink:href="#DejaVuSans-74"/>
       <use x="383.333984" xlink:href="#DejaVuSans-65"/>
      </g>
     </g>
    </g>
    <g id="xtick_29">
     <g id="line2d_29">
      <g>
       <use style="stroke:#000000;stroke-width:0.8;" x="1625.465455" xlink:href="#m3d93f657e3" y="668.792"/>
      </g>
     </g>
     <g id="text_29">
      <!-- throw -->
      <g transform="translate(1611.134205 683.390437)scale(0.1 -0.1)">
       <use xlink:href="#DejaVuSans-74"/>
       <use x="39.208984" xlink:href="#DejaVuSans-68"/>
       <use x="102.587891" xlink:href="#DejaVuSans-72"/>
       <use x="143.669922" xlink:href="#DejaVuSans-6f"/>
       <use x="204.851562" xlink:href="#DejaVuSans-77"/>
      </g>
      <!-- Ins -->
      <g transform="translate(1618.217017 694.58825)scale(0.1 -0.1)">
       <use xlink:href="#DejaVuSans-49"/>
       <use x="29.492188" xlink:href="#DejaVuSans-6e"/>
       <use x="92.871094" xlink:href="#DejaVuSans-73"/>
      </g>
      <!-- Total -->
      <g transform="translate(1612.952173 705.786063)scale(0.1 -0.1)">
       <use xlink:href="#DejaVuSans-54"/>
       <use x="60.818359" xlink:href="#DejaVuSans-6f"/>
       <use x="122" xlink:href="#DejaVuSans-74"/>
       <use x="161.208984" xlink:href="#DejaVuSans-61"/>
       <use x="222.488281" xlink:href="#DejaVuSans-6c"/>
      </g>
     </g>
    </g>
    <g id="xtick_30">
     <g id="line2d_30">
      <g>
       <use style="stroke:#000000;stroke-width:0.8;" x="1679.203636" xlink:href="#m3d93f657e3" y="668.792"/>
      </g>
     </g>
     <g id="text_30">
      <!-- touches -->
      <g transform="translate(1659.416136 683.390437)scale(0.1 -0.1)">
       <use xlink:href="#DejaVuSans-74"/>
       <use x="39.208984" xlink:href="#DejaVuSans-6f"/>
       <use x="100.390625" xlink:href="#DejaVuSans-75"/>
       <use x="163.769531" xlink:href="#DejaVuSans-63"/>
       <use x="218.75" xlink:href="#DejaVuSans-68"/>
       <use x="282.128906" xlink:href="#DejaVuSans-65"/>
       <use x="343.652344" xlink:href="#DejaVuSans-73"/>
      </g>
     </g>
    </g>
   </g>
   <g id="matplotlib.axis_2"/>
   <g id="patch_33">
    <path d="M 13.32 668.792 
L 13.32 26.88 
" style="fill:none;stroke:#000000;stroke-linecap:square;stroke-linejoin:miter;stroke-width:0.8;"/>
   </g>
   <g id="patch_34">
    <path d="M 1786.68 668.792 
L 1786.68 26.88 
" style="fill:none;stroke:#000000;stroke-linecap:square;stroke-linejoin:miter;stroke-width:0.8;"/>
   </g>
   <g id="patch_35">
    <path d="M 13.32 668.792 
L 1786.68 668.792 
" style="fill:none;stroke:#000000;stroke-linecap:square;stroke-linejoin:miter;stroke-width:0.8;"/>
   </g>
   <g id="patch_36">
    <path d="M 13.32 26.88 
L 1786.68 26.88 
" style="fill:none;stroke:#000000;stroke-linecap:square;stroke-linejoin:miter;stroke-width:0.8;"/>
   </g>
   <g id="text_31">
    <!-- passesAccurate, passesKey, passesTotal, possession, shotsBlocked, shotsOffTarget, shotsTotal, touches -->
    <defs>
     <path d="M 11.71875 12.40625 
L 22.015625 12.40625 
L 22.015625 4 
L 14.015625 -11.625 
L 7.71875 -11.625 
L 11.71875 4 
z
" id="DejaVuSans-2c"/>
     <path id="DejaVuSans-20"/>
    </defs>
    <g transform="translate(586.632187 20.88)scale(0.12 -0.12)">
     <use xlink:href="#DejaVuSans-70"/>
     <use x="63.476562" xlink:href="#DejaVuSans-61"/>
     <use x="124.755859" xlink:href="#DejaVuSans-73"/>
     <use x="176.855469" xlink:href="#DejaVuSans-73"/>
     <use x="228.955078" xlink:href="#DejaVuSans-65"/>
     <use x="290.478516" xlink:href="#DejaVuSans-73"/>
     <use x="342.578125" xlink:href="#DejaVuSans-41"/>
     <use x="410.970703" xlink:href="#DejaVuSans-63"/>
     <use x="465.951172" xlink:href="#DejaVuSans-63"/>
     <use x="520.931641" xlink:href="#DejaVuSans-75"/>
     <use x="584.310547" xlink:href="#DejaVuSans-72"/>
     <use x="625.423828" xlink:href="#DejaVuSans-61"/>
     <use x="686.703125" xlink:href="#DejaVuSans-74"/>
     <use x="725.912109" xlink:href="#DejaVuSans-65"/>
     <use x="787.435547" xlink:href="#DejaVuSans-2c"/>
     <use x="819.222656" xlink:href="#DejaVuSans-20"/>
     <use x="851.009766" xlink:href="#DejaVuSans-70"/>
     <use x="914.486328" xlink:href="#DejaVuSans-61"/>
     <use x="975.765625" xlink:href="#DejaVuSans-73"/>
     <use x="1027.865234" xlink:href="#DejaVuSans-73"/>
     <use x="1079.964844" xlink:href="#DejaVuSans-65"/>
     <use x="1141.488281" xlink:href="#DejaVuSans-73"/>
     <use x="1193.587891" xlink:href="#DejaVuSans-4b"/>
     <use x="1259.085938" xlink:href="#DejaVuSans-65"/>
     <use x="1320.609375" xlink:href="#DejaVuSans-79"/>
     <use x="1379.789062" xlink:href="#DejaVuSans-2c"/>
     <use x="1411.576172" xlink:href="#DejaVuSans-20"/>
     <use x="1443.363281" xlink:href="#DejaVuSans-70"/>
     <use x="1506.839844" xlink:href="#DejaVuSans-61"/>
     <use x="1568.119141" xlink:href="#DejaVuSans-73"/>
     <use x="1620.21875" xlink:href="#DejaVuSans-73"/>
     <use x="1672.318359" xlink:href="#DejaVuSans-65"/>
     <use x="1733.841797" xlink:href="#DejaVuSans-73"/>
     <use x="1785.941406" xlink:href="#DejaVuSans-54"/>
     <use x="1846.759766" xlink:href="#DejaVuSans-6f"/>
     <use x="1907.941406" xlink:href="#DejaVuSans-74"/>
     <use x="1947.150391" xlink:href="#DejaVuSans-61"/>
     <use x="2008.429688" xlink:href="#DejaVuSans-6c"/>
     <use x="2036.212891" xlink:href="#DejaVuSans-2c"/>
     <use x="2068" xlink:href="#DejaVuSans-20"/>
     <use x="2099.787109" xlink:href="#DejaVuSans-70"/>
     <use x="2163.263672" xlink:href="#DejaVuSans-6f"/>
     <use x="2224.445312" xlink:href="#DejaVuSans-73"/>
     <use x="2276.544922" xlink:href="#DejaVuSans-73"/>
     <use x="2328.644531" xlink:href="#DejaVuSans-65"/>
     <use x="2390.167969" xlink:href="#DejaVuSans-73"/>
     <use x="2442.267578" xlink:href="#DejaVuSans-73"/>
     <use x="2494.367188" xlink:href="#DejaVuSans-69"/>
     <use x="2522.150391" xlink:href="#DejaVuSans-6f"/>
     <use x="2583.332031" xlink:href="#DejaVuSans-6e"/>
     <use x="2646.710938" xlink:href="#DejaVuSans-2c"/>
     <use x="2678.498047" xlink:href="#DejaVuSans-20"/>
     <use x="2710.285156" xlink:href="#DejaVuSans-73"/>
     <use x="2762.384766" xlink:href="#DejaVuSans-68"/>
     <use x="2825.763672" xlink:href="#DejaVuSans-6f"/>
     <use x="2886.945312" xlink:href="#DejaVuSans-74"/>
     <use x="2926.154297" xlink:href="#DejaVuSans-73"/>
     <use x="2978.253906" xlink:href="#DejaVuSans-42"/>
     <use x="3046.857422" xlink:href="#DejaVuSans-6c"/>
     <use x="3074.640625" xlink:href="#DejaVuSans-6f"/>
     <use x="3135.822266" xlink:href="#DejaVuSans-63"/>
     <use x="3190.802734" xlink:href="#DejaVuSans-6b"/>
     <use x="3248.666016" xlink:href="#DejaVuSans-65"/>
     <use x="3310.189453" xlink:href="#DejaVuSans-64"/>
     <use x="3373.666016" xlink:href="#DejaVuSans-2c"/>
     <use x="3405.453125" xlink:href="#DejaVuSans-20"/>
     <use x="3437.240234" xlink:href="#DejaVuSans-73"/>
     <use x="3489.339844" xlink:href="#DejaVuSans-68"/>
     <use x="3552.71875" xlink:href="#DejaVuSans-6f"/>
     <use x="3613.900391" xlink:href="#DejaVuSans-74"/>
     <use x="3653.109375" xlink:href="#DejaVuSans-73"/>
     <use x="3705.208984" xlink:href="#DejaVuSans-4f"/>
     <use x="3783.919922" xlink:href="#DejaVuSans-66"/>
     <use x="3819.125" xlink:href="#DejaVuSans-66"/>
     <use x="3854.330078" xlink:href="#DejaVuSans-54"/>
     <use x="3915.164062" xlink:href="#DejaVuSans-61"/>
     <use x="3976.443359" xlink:href="#DejaVuSans-72"/>
     <use x="4017.541016" xlink:href="#DejaVuSans-67"/>
     <use x="4081.017578" xlink:href="#DejaVuSans-65"/>
     <use x="4142.541016" xlink:href="#DejaVuSans-74"/>
     <use x="4181.75" xlink:href="#DejaVuSans-2c"/>
     <use x="4213.537109" xlink:href="#DejaVuSans-20"/>
     <use x="4245.324219" xlink:href="#DejaVuSans-73"/>
     <use x="4297.423828" xlink:href="#DejaVuSans-68"/>
     <use x="4360.802734" xlink:href="#DejaVuSans-6f"/>
     <use x="4421.984375" xlink:href="#DejaVuSans-74"/>
     <use x="4461.193359" xlink:href="#DejaVuSans-73"/>
     <use x="4513.292969" xlink:href="#DejaVuSans-54"/>
     <use x="4574.111328" xlink:href="#DejaVuSans-6f"/>
     <use x="4635.292969" xlink:href="#DejaVuSans-74"/>
     <use x="4674.501953" xlink:href="#DejaVuSans-61"/>
     <use x="4735.78125" xlink:href="#DejaVuSans-6c"/>
     <use x="4763.564453" xlink:href="#DejaVuSans-2c"/>
     <use x="4795.351562" xlink:href="#DejaVuSans-20"/>
     <use x="4827.138672" xlink:href="#DejaVuSans-74"/>
     <use x="4866.347656" xlink:href="#DejaVuSans-6f"/>
     <use x="4927.529297" xlink:href="#DejaVuSans-75"/>
     <use x="4990.908203" xlink:href="#DejaVuSans-63"/>
     <use x="5045.888672" xlink:href="#DejaVuSans-68"/>
     <use x="5109.267578" xlink:href="#DejaVuSans-65"/>
     <use x="5170.791016" xlink:href="#DejaVuSans-73"/>
    </g>
   </g>
  </g>
 </g>
 <defs>
  <clipPath id="p8fcd5c8ab7">
   <rect height="641.912" width="1773.36" x="13.32" y="26.88"/>
  </clipPath>
 </defs>
</svg>
